<svg xmlns="http://www.w3.org/2000/svg" xmlns:xlink="http://www.w3.org/1999/xlink" version="1.1" id="Youtube" x="0px" y="0px" width="25px" height="25px" viewBox="0 0 25 25" style="enable-background:new 0 0 25 25;" xml:space="preserve" class="svg replaced-svg">
<style type="text/css">
	.st0{fill:#FFFFFF;}
</style>
<path class="st0" d="M17.1,12.3c0-0.3-0.1-0.5-0.4-0.6l-6-3.8c-0.2-0.2-0.5-0.2-0.8,0C9.7,8,9.5,8.2,9.5,8.5v7.5  c0,0.3,0.1,0.5,0.4,0.7c0.1,0.1,0.2,0.1,0.4,0.1c0.2,0,0.3,0,0.4-0.1l6-3.8C17,12.8,17.1,12.6,17.1,12.3z M23.1,12.3  c0,0.8,0,1.3,0,1.8c0,0.4,0,1-0.1,1.6c-0.1,0.6-0.1,1.2-0.3,1.7c-0.1,0.6-0.4,1.1-0.8,1.4c-0.4,0.4-0.9,0.6-1.5,0.7  c-1.7,0.2-4.4,0.3-7.9,0.3s-6.2-0.1-7.9-0.3c-0.6-0.1-1-0.3-1.5-0.7c-0.4-0.4-0.7-0.9-0.8-1.4c-0.1-0.5-0.2-1.1-0.3-1.7  C2.1,15,2,14.5,2,14c0-0.4,0-1,0-1.8s0-1.3,0-1.8c0-0.4,0-1,0.1-1.6c0.1-0.6,0.1-1.2,0.3-1.7c0.1-0.6,0.4-1.1,0.8-1.4S4.1,5.1,4.7,5  C6.4,4.8,9,4.7,12.6,4.7s6.2,0.1,7.9,0.3c0.6,0.1,1,0.3,1.5,0.7c0.4,0.4,0.7,0.9,0.8,1.4c0.1,0.5,0.2,1.1,0.3,1.7  c0.1,0.6,0.1,1.2,0.1,1.6C23.1,10.9,23.1,11.5,23.1,12.3z"></path>
</svg>