<svg xmlns="http://www.w3.org/2000/svg" xmlns:xlink="http://www.w3.org/1999/xlink" id="Untitled-Page%201" viewBox="0 0 24 16" style="background-color:#ffffff00" version="1.1" xml:space="preserve" x="0px" y="0px" width="24px" height="16px" class="svg replaced-svg">
	<g id="Layer%201">
		<g>
			<path d="M 1.1406 0 C 8.4136 0 15.5835 0 22.877 0 C 22.7023 0.1844 22.6064 0.2931 22.5037 0.3907 C 19.963 2.9121 17.4189 5.4301 14.8782 7.9515 C 14.207 8.6136 13.5463 9.29 12.8717 9.9521 C 12.3169 10.4984 11.6802 10.4984 11.1254 9.9484 C 7.8726 6.7287 4.6265 3.5055 1.3804 0.2822 C 1.3188 0.2207 1.2709 0.1483 1.1406 0 Z" fill="#ffffff"></path>
			<path d="M 1.1372 14.883 C 3.339 12.6074 5.4962 10.379 7.6807 8.1252 C 8.3005 8.7402 8.9133 9.348 9.5229 9.9521 C 9.8276 10.2524 10.1324 10.5526 10.4337 10.8529 C 11.3206 11.7175 12.6628 11.7248 13.5496 10.8601 C 14.4707 9.9557 15.3816 9.0477 16.3164 8.1252 C 18.4976 10.3754 20.6547 12.6039 22.8187 14.8359 C 22.449 15.0204 1.9968 15.0674 1.1372 14.883 Z" fill="#ffffff"></path>
			<path d="M 23.6919 14.1413 C 21.5107 11.8839 19.3296 9.6301 17.1107 7.3329 C 19.3262 5.1262 21.5107 2.952 23.7843 0.691 C 23.8699 1.0889 23.9897 1.3892 23.9897 1.6894 C 24.0034 5.5458 24.0034 9.4022 23.9897 13.2586 C 23.9897 13.548 23.8767 13.8374 23.8186 14.1268 C 23.7775 14.1341 23.7363 14.1377 23.6919 14.1413 Z" fill="#ffffff"></path>
			<path d="M 0.1785 14.1305 C 0.1204 13.8266 0.0107 13.5263 0.0073 13.2225 C -0.0029 9.3914 -0.0029 5.5639 0.0107 1.7364 C 0.0107 1.4218 0.1238 1.107 0.2059 0.6801 C 2.4795 2.9447 4.6572 5.1081 6.8864 7.3221 C 4.6812 9.6085 2.4933 11.8731 0.3121 14.1377 C 0.2676 14.1377 0.2231 14.1341 0.1785 14.1305 Z" fill="#ffffff"></path>
		</g>
	</g>
</svg>