<svg xmlns="http://www.w3.org/2000/svg" xmlns:xlink="http://www.w3.org/1999/xlink" version="1.1" id="LinkedIn" x="0px" y="0px" width="25px" height="25px" viewBox="0 0 25 25" style="enable-background:new 0 0 25 25;" xml:space="preserve" class="svg replaced-svg">
<style type="text/css">
	.st0{fill:#FFFFFF;}
</style>
<g>
	<path class="st0" d="M4.3,2.5c0.7,0,1.2,0.2,1.6,0.6c0.4,0.4,0.6,1,0.6,1.6c0,0.6-0.2,1.2-0.7,1.6C5.4,6.8,4.8,7,4,7h0   C3.3,7,2.7,6.8,2.3,6.4c-0.4-0.4-0.6-1-0.6-1.6c0-0.7,0.2-1.2,0.7-1.6C2.8,2.7,3.4,2.5,4.3,2.5z M1.9,8.8h4.6v13H1.9V8.8z    M23.3,14.3v7.5h-4.6v-7c0-0.9-0.2-1.6-0.5-2.1c-0.4-0.5-1-0.8-1.8-0.8c-0.6,0-1.2,0.2-1.6,0.5c-0.4,0.3-0.7,0.7-0.8,1.1   c-0.1,0.1-0.1,0.3-0.1,0.5c0,0.2,0,0.4,0,0.6v7.3H9.1c0-2.2,0-4.2,0-6.1v-2.3v-2.1c0-0.6,0-1.2,0-1.6c0-0.4,0-0.8,0-0.9h4.7v1.8   l0,0.1h0v-0.1c0.1-0.2,0.3-0.5,0.6-0.7c0.2-0.2,0.5-0.5,0.8-0.7c0.3-0.2,0.7-0.4,1.2-0.5c0.5-0.1,1-0.2,1.6-0.2   c0.8,0,1.5,0.1,2.1,0.3c0.7,0.2,1.2,0.6,1.7,1.1c0.5,0.5,0.8,1.1,1.1,1.8C23.2,12.5,23.3,13.3,23.3,14.3z"></path>
</g>
</svg>