<svg xmlns="http://www.w3.org/2000/svg" xmlns:xlink="http://www.w3.org/1999/xlink" id="Untitled-Page%201" viewBox="0 0 18 22" style="background-color:#ffffff00" version="1.1" xml:space="preserve" x="0px" y="0px" width="18px" height="22px" class="svg replaced-svg">
	<g id="Layer%201">
		<g>
			<g>
				<path d="M 17.9158 5.4831 C 16.1257 5.4831 14.3157 5.4831 12.4856 5.4831 C 12.4856 3.67 12.4856 1.8649 12.4856 0.0917 C 14.2876 1.8808 16.0977 3.678 17.9158 5.4831 Z" fill="#ffffff"></path>
				<g>
					<path d="M 5.2816 11.1853 L 4.4589 11.1853 L 4.4589 13.1219 L 5.2816 13.1219 C 5.5344 13.1219 5.7271 13.0342 5.8595 12.851 C 5.9919 12.6716 6.0602 12.4445 6.0602 12.1655 C 6.0602 11.8787 5.9919 11.6475 5.8595 11.4603 C 5.7271 11.2729 5.5344 11.1853 5.2816 11.1853 Z" fill="#ffffff"></path>
					<path d="M 11.0729 6.8618 C 11.0729 4.5466 11.0729 2.2793 11.0729 0 C 7.3685 0 3.6924 0 0 0 C 0 7.34 0 14.668 0 22 C 6.0121 22 12.004 22 18 22 C 18 16.9553 18 11.9304 18 6.8618 C 15.6924 6.8618 13.3967 6.8618 11.0729 6.8618 ZM 6.6743 13.4965 C 6.3291 13.8352 5.8676 14.0065 5.2816 14.0065 L 4.4589 14.0065 L 4.4589 16.1025 L 3.3271 16.1025 L 3.3271 10.3007 L 5.2816 10.3007 C 5.8676 10.3007 6.3291 10.476 6.6743 10.8147 C 7.0154 11.1534 7.188 11.6037 7.188 12.1576 C 7.188 12.7115 7.0154 13.1578 6.6743 13.4965 ZM 11.8235 13.6877 C 11.8235 14.397 11.6228 14.9788 11.2253 15.4291 C 10.8241 15.8794 10.3224 16.1025 9.7124 16.1025 L 7.9104 16.1025 L 7.9104 10.3007 L 9.7124 10.3007 C 10.3224 10.3007 10.8241 10.5318 11.2253 10.9821 C 11.6228 11.4324 11.8235 12.0141 11.8235 12.7234 L 11.8235 13.6877 ZM 15.9572 11.1853 L 13.7499 11.1853 L 13.7499 12.8031 L 15.604 12.8031 L 15.604 13.6797 L 13.7499 13.6797 L 13.7499 16.1025 L 12.618 16.1025 L 12.618 10.3007 L 15.9572 10.3007 L 15.9572 11.1853 Z" fill="#ffffff"></path>
					<path d="M 9.7124 11.1853 L 9.0421 11.1853 L 9.0421 15.2259 L 9.7124 15.2259 C 10.0013 15.2259 10.2382 15.0824 10.4187 14.7955 C 10.5953 14.5086 10.6876 14.142 10.6876 13.6877 L 10.6876 12.7155 C 10.6876 12.2692 10.5953 11.9025 10.4187 11.6157 C 10.2382 11.3287 10.0013 11.1853 9.7124 11.1853 Z" fill="#ffffff"></path>
				</g>
			</g>
		</g>
	</g>
</svg>