<svg xmlns="http://www.w3.org/2000/svg" xmlns:xlink="http://www.w3.org/1999/xlink" id="Untitled-Page%201" viewBox="0 0 24 19" style="background-color:#ffffff00" version="1.1" xml:space="preserve" x="0px" y="0px" width="24px" height="19px" class="svg replaced-svg">
	<g id="Layer%201">
		<g>
			<path d="M 24 2.2451 C 23.1113 2.6298 22.1621 2.8887 21.1671 3.0033 C 22.1848 2.4078 22.967 1.4684 23.3317 0.3513 C 22.3748 0.8988 21.3342 1.2982 20.2025 1.5127 C 19.3064 0.5807 18.0304 0 16.6101 0 C 13.8911 0 11.681 2.1489 11.681 4.7972 C 11.681 5.1707 11.7266 5.5369 11.8101 5.8846 C 7.7241 5.6849 4.0938 3.78 1.6633 0.8766 C 1.2456 1.5867 0.9949 2.4078 0.9949 3.2881 C 0.9949 4.9525 1.8684 6.4208 3.1899 7.2827 C 2.3848 7.2531 1.6252 7.0386 0.9493 6.6835 L 0.9493 6.7427 C 0.9493 9.0654 2.6582 11.0035 4.9139 11.4436 C 4.4962 11.5583 4.0557 11.6101 3.6077 11.6101 C 3.2886 11.6101 2.9849 11.5842 2.681 11.5287 C 3.3114 13.4335 5.1266 14.8206 7.2836 14.8575 C 5.5974 16.1447 3.4709 16.914 1.1697 16.914 C 0.7671 16.914 0.3798 16.8917 0 16.8474 C 2.1721 18.2085 4.7697 19 7.5417 19 C 16.595 19 21.5469 11.6914 21.5469 5.352 C 21.5469 5.1448 21.5469 4.9377 21.5393 4.7306 C 22.4962 4.0538 23.3317 3.2067 24 2.2451 L 24 2.2451 Z" fill="#ffffff"></path>
		</g>
	</g>
</svg>