<svg id="Untitled-Page_201" data-name="Untitled-Page%201" xmlns="http://www.w3.org/2000/svg" viewBox="0 0 18 22"><defs><style>.cls-1{fill:#fff;}</style></defs><path class="cls-1" d="M12.49.09V5.48h5.43Z"/><path class="cls-1" d="M9.33,11.08h-1V15.3h1a1.38,1.38,0,0,0,1-.33,1.19,1.19,0,0,0,.35-.93v-1.7a1.19,1.19,0,0,0-.35-.93A1.38,1.38,0,0,0,9.33,11.08Z"/><path class="cls-1" d="M15.64,12.54a.81.81,0,0,0,.23-.62.84.84,0,0,0-.25-.65,1.2,1.2,0,0,0-.77-.21H13.54v1.69H15A1,1,0,0,0,15.64,12.54Z"/><path class="cls-1" d="M11.07,6.86V0H0V22H18V6.86ZM3.4,14.7a1.11,1.11,0,0,0,.41.47,1.07,1.07,0,0,0,.62.17,1.12,1.12,0,0,0,.9-.42,1.26,1.26,0,0,0,.26-.5h.82a2.14,2.14,0,0,1-.38.9,1.89,1.89,0,0,1-.69.6,2,2,0,0,1-.91.21,2.1,2.1,0,0,1-1-.26,1.8,1.8,0,0,1-.71-.76A2.51,2.51,0,0,1,2.42,14V12.4a2.54,2.54,0,0,1,.25-1.13,1.83,1.83,0,0,1,.71-.75,2,2,0,0,1,1-.27,2,2,0,0,1,.91.21,1.92,1.92,0,0,1,.7.6,2.26,2.26,0,0,1,.37.9H5.59a1.25,1.25,0,0,0-.26-.48,1.14,1.14,0,0,0-.9-.44,1.15,1.15,0,0,0-.62.17,1.08,1.08,0,0,0-.41.48,1.58,1.58,0,0,0-.15.71V14A1.66,1.66,0,0,0,3.4,14.7ZM11.5,14a2.15,2.15,0,0,1-.26,1.11,1.66,1.66,0,0,1-.75.71,2.64,2.64,0,0,1-1.18.24H7.48V10.31H9.31a2.72,2.72,0,0,1,1.19.24,1.69,1.69,0,0,1,.74.71,2.17,2.17,0,0,1,.26,1.11Zm5.26.49a1.63,1.63,0,0,1-.21.83,1.37,1.37,0,0,1-.59.55,1.91,1.91,0,0,1-.89.19H12.73V10.31H15a2,2,0,0,1,.94.19,1.27,1.27,0,0,1,.56.54,1.78,1.78,0,0,1,.19.83,1.34,1.34,0,0,1-.12.56,1.14,1.14,0,0,1-.35.44,1.33,1.33,0,0,1-.58.25,1.28,1.28,0,0,1,1,.74,1.45,1.45,0,0,1,.13.63Z"/><path class="cls-1" d="M15.52,13.59a1.25,1.25,0,0,0-.55-.11H13.54v1.84h1.23a1.4,1.4,0,0,0,.89-.23.81.81,0,0,0,.28-.66h0a1.09,1.09,0,0,0-.1-.5A.68.68,0,0,0,15.52,13.59Z"/></svg>