<svg id="Untitled-Page_201" data-name="Untitled-Page%201" xmlns="http://www.w3.org/2000/svg" viewBox="0 0 19.38 22"><defs><style>.cls-1{fill:none;}.cls-2{fill:#fff;}</style></defs><path class="cls-1" transform="translate(1.46 -0.04)"/><g id="Layer_201" data-name="Layer%201"><path class="cls-2" d="M17.92,5.48H12.49V.09Z" transform="translate(1.46 -0.04)"/><path class="cls-2" d="M9.08,12.41a1.9,1.9,0,0,0-.77-.13H8v2.91h.28a1.94,1.94,0,0,0,.79-.13,1,1,0,0,0,.47-.46,1.76,1.76,0,0,0,.18-.85,1.88,1.88,0,0,0-.18-.86A1,1,0,0,0,9.08,12.41Z" transform="translate(1.46 -0.04)"/><path class="cls-2" d="M14,13.16a.46.46,0,0,0,.16-.41.44.44,0,0,0-.15-.37,1,1,0,0,0-.54-.1h-.28v1h.32A.89.89,0,0,0,14,13.16Z" transform="translate(1.46 -0.04)"/><path class="cls-2" d="M13.49,14h-.32v1.18h.32a1,1,0,0,0,.61-.13.49.49,0,0,0,.18-.44.55.55,0,0,0-.19-.47A1.06,1.06,0,0,0,13.49,14Z" transform="translate(1.46 -0.04)"/><path class="cls-2" d="M9.61,6.9V0H-1.46V22h18V6.9ZM3.72,16a2.38,2.38,0,0,1-1.79-.64,2.29,2.29,0,0,1-.6-1.62,2.43,2.43,0,0,1,.31-1.22,2,2,0,0,1,.85-.78,2.51,2.51,0,0,1,1.16-.27A2.07,2.07,0,0,1,5,11.88v-.35h.74v1.55H5a1.13,1.13,0,0,0-1.1-.83,1.12,1.12,0,0,0-1,.44,1.69,1.69,0,0,0-.34,1.05,1.52,1.52,0,0,0,.35,1,1.17,1.17,0,0,0,.9.4,1.11,1.11,0,0,0,.77-.3A1.55,1.55,0,0,0,5,14l.87.42A2.08,2.08,0,0,1,3.72,16Zm7.07-1.37a2,2,0,0,1-.38.67,1.81,1.81,0,0,1-.55.4,2.42,2.42,0,0,1-.59.2,5.64,5.64,0,0,1-.83,0H6.22v-.74h.67V12.28H6.22v-.75H8.31a5.94,5.94,0,0,1,1.06.08,2.15,2.15,0,0,1,.77.36,2,2,0,0,1,.58.74,2.36,2.36,0,0,1,.23,1A2.59,2.59,0,0,1,10.79,14.62Zm4.42.78a1.22,1.22,0,0,1-.63.42,3.92,3.92,0,0,1-1.09.11h-2v-.74H12V12.28h-.54v-.75h2a4.75,4.75,0,0,1,1,.08A1,1,0,0,1,15,12a1.08,1.08,0,0,1,.24.7.92.92,0,0,1-.62.91,1,1,0,0,1,.79,1.05A1.2,1.2,0,0,1,15.21,15.4Z" transform="translate(1.46 -0.04)"/></g><path class="cls-1" transform="translate(1.46 -0.04)"/></svg>