<svg xmlns="http://www.w3.org/2000/svg" xmlns:xlink="http://www.w3.org/1999/xlink" id="Untitled-Page%201" viewBox="0 0 24 23" style="background-color:#ffffff00" version="1.1" xml:space="preserve" x="0px" y="0px" width="24px" height="23px" class="svg replaced-svg">
	<g id="Layer%201">
		<g>
			<path d="M 18.5256 4.2053 L 5.4744 4.2053 L 5.4744 0 L 18.5256 0 L 18.5256 4.2053 Z" fill="#ffffff"></path>
			<path d="M 0 5.7704 L 0 14.4805 L 4.6172 14.4805 L 4.6172 23 L 19.3828 23 L 19.3828 14.4805 L 24 14.4805 L 24 5.7704 L 0 5.7704 ZM 17.6685 14.4805 L 6.3315 14.4805 L 6.3315 10.8298 L 17.6685 10.8298 L 17.6685 14.4805 ZM 21.7935 9.5471 C 21.1206 9.5471 20.5747 8.9925 20.5747 8.3086 C 20.5747 7.6247 21.1206 7.0701 21.7935 7.0701 C 22.4666 7.0701 23.0122 7.6247 23.0122 8.3086 C 23.0122 8.9925 22.4666 9.5471 21.7935 9.5471 Z" fill="#ffffff"></path>
		</g>
	</g>
</svg>