<svg xmlns="http://www.w3.org/2000/svg" xmlns:xlink="http://www.w3.org/1999/xlink" id="search-icon-Page%201" viewBox="0 0 25 25" style="background-color:#ffffff00" version="1.1" xml:space="preserve" x="0px" y="0px" width="25px" height="25px" class="svg header-icon-default replaced-svg">
	<g id="Layer%201">
		<path id="search%20outline%20box" d="M 16.7588 15.7786 C 16.9304 15.9531 17.0912 16.1113 17.2456 16.2751 C 18.7213 17.8251 20.197 19.3768 21.6714 20.93 C 22.0098 21.2872 22.0833 21.6379 21.9084 22.0008 C 21.6416 22.5562 21.0021 22.6718 20.5669 22.2277 C 20.052 21.7034 19.5513 21.1627 19.0459 20.631 C 17.9648 19.4972 16.8789 18.3699 15.8073 17.2287 C 15.6404 17.0509 15.5389 17.0558 15.3533 17.1951 C 13.8027 18.3601 12.0835 18.9213 10.1678 18.7697 C 6.8169 18.5059 3.9966 16.0236 3.2352 12.5869 C 2.6252 9.844 3.2009 7.374 4.97 5.2448 C 7.6047 2.0743 12.4204 1.4206 15.8073 4.5026 C 19.0662 7.469 19.1426 11.947 17.2721 15.0479 C 17.1255 15.2912 16.946 15.5132 16.7588 15.7786 ZM 11.0212 17.0378 C 14.5452 16.8928 17.0771 13.6445 16.7979 10.1185 C 16.528 6.685 13.6404 3.8062 9.8948 4.3232 C 6.8497 4.7426 4.4348 7.5838 4.6798 11.1147 C 4.9309 14.7292 7.8652 17.223 11.0212 17.0378 Z" fill="#ffffff"></path>
	</g>
</svg>