   <svg xmlns="http://www.w3.org/2000/svg" xmlns:xlink="http://www.w3.org/1999/xlink" version="1.1" id="Twitter" x="0px" y="0px" width="25px" height="25px" viewBox="0 0 25 25" style="enable-background:new 0 0 25 25;" xml:space="preserve" class="svg replaced-svg">
<style type="text/css">
	.st0{fill:#FFFFFF;}
</style>
<path class="st0" d="M3.6,4.3C5.6,7,8.7,8.6,12.1,8.9c-0.5-2.3,0.9-4.6,3.2-5.2c0.4-0.1,0.7-0.1,1.1-0.1c1.2-0.1,2.4,0.4,3.3,1.3  c1,0,1.9-0.4,2.6-1c-0.3,0.9-0.9,1.7-1.6,2.3c0.8,0,1.6-0.2,2.3-0.7c-0.4,1-1.3,1.9-2.3,2.3c0.4,6.7-4.8,12.5-11.5,12.8  c-0.1,0-0.2,0-0.4,0c-2.5,0.1-4.9-0.6-6.9-2c2.2,0,4.4-0.5,6.3-1.6c-1.7-0.3-3.2-1.4-4-3c0.7,0,1.3-0.1,2-0.3  c-1.9-0.6-3.3-2.3-3.6-4.3c0.6,0.3,1.3,0.6,2,0.7C2.8,8.8,2.4,6.3,3.6,4.3"></path>
</svg>